<svg width="1423" height="510" xmlns="http://www.w3.org/2000/svg"><g><path d="M-32,-45L-87,122L-25,24Z" fill="#3a4486" stroke="#3a4486"/><path d="M-32,-45L-25,24L22,-14Z" fill="#3f4b94" stroke="#3f4b94"/><path d="M-32,-45L22,-14L184,-75Z" fill="#43509d" stroke="#43509d"/><path d="M-32,-45L184,-75L214,-84Z" fill="#4654a4" stroke="#4654a4"/><path d="M22,-14L-25,24L73,48Z" fill="#3b468b" stroke="#3b468b"/><path d="M22,-14L73,48L124,11Z" fill="#3c478c" stroke="#3c478c"/><path d="M22,-14L124,11L184,-75Z" fill="#414d98" stroke="#414d98"/><path d="M184,-75L124,11L290,16Z" fill="#404c95" stroke="#404c95"/><path d="M184,-75L290,16L214,-84Z" fill="#43519e" stroke="#43519e"/><path d="M214,-84L290,16L317,-34Z" fill="#424f9a" stroke="#424f9a"/><path d="M214,-84L317,-34L490,-25Z" fill="#43519e" stroke="#43519e"/><path d="M214,-84L490,-25L743,-58Z" fill="#4452a0" stroke="#4452a0"/><path d="M214,-84L743,-58L1035,-71Z" fill="#4655a5" stroke="#4655a5"/><path d="M214,-84L1035,-71L1147,-81Z" fill="#4756a7" stroke="#4756a7"/><path d="M214,-84L1147,-81L1226,-87Z" fill="#4857a9" stroke="#4857a9"/><path d="M317,-34L290,16L415,41Z" fill="#3d488e" stroke="#3d488e"/><path d="M317,-34L415,41L490,-25Z" fill="#3e4a92" stroke="#3e4a92"/><path d="M490,-25L415,41L567,71Z" fill="#3a4588" stroke="#3a4588"/><path d="M490,-25L567,71L579,-24Z" fill="#3d488e" stroke="#3d488e"/><path d="M490,-25L579,-24L743,-58Z" fill="#424f9b" stroke="#424f9b"/><path d="M579,-24L567,71L642,12Z" fill="#3b468b" stroke="#3b468b"/><path d="M579,-24L642,12L669,-29Z" fill="#3f4b94" stroke="#3f4b94"/><path d="M579,-24L669,-29L743,-58Z" fill="#424f9b" stroke="#424f9b"/><path d="M669,-29L642,12L722,81Z" fill="#3b468a" stroke="#3b468a"/><path d="M669,-29L722,81L743,-58Z" fill="#3e4a91" stroke="#3e4a91"/><path d="M743,-58L722,81L815,56Z" fill="#3b4589" stroke="#3b4589"/><path d="M743,-58L815,56L815,-27Z" fill="#3f4b93" stroke="#3f4b93"/><path d="M743,-58L815,-27L945,-44Z" fill="#43509d" stroke="#43509d"/><path d="M743,-58L945,-44L1035,-71Z" fill="#4553a1" stroke="#4553a1"/><path d="M815,-27L815,56L945,-44Z" fill="#3e4a92" stroke="#3e4a92"/><path d="M945,-44L815,56L946,76Z" fill="#3a4588" stroke="#3a4588"/><path d="M945,-44L946,76L1068,34Z" fill="#3b468a" stroke="#3b468a"/><path d="M945,-44L1068,34L1035,-71Z" fill="#414e98" stroke="#414e98"/><path d="M1035,-71L1068,34L1149,12Z" fill="#3f4b93" stroke="#3f4b93"/><path d="M1035,-71L1149,12L1147,-81Z" fill="#43519e" stroke="#43519e"/><path d="M1147,-81L1149,12L1226,-87Z" fill="#44529f" stroke="#44529f"/><path d="M1226,-87L1149,12L1267,24Z" fill="#404c95" stroke="#404c95"/><path d="M1226,-87L1267,24L1386,-84Z" fill="#44519f" stroke="#44519f"/><path d="M1386,-84L1267,24L1366,19Z" fill="#3f4b94" stroke="#3f4b94"/><path d="M1386,-84L1366,19L1471,-26Z" fill="#414e99" stroke="#414e99"/><path d="M1386,-84L1471,-26L1539,-76Z" fill="#4553a2" stroke="#4553a2"/><path d="M1471,-26L1366,19L1484,26Z" fill="#3d488e" stroke="#3d488e"/><path d="M1471,-26L1484,26L1539,-76Z" fill="#414d98" stroke="#414d98"/><path d="M1539,-76L1484,26L1532,72Z" fill="#3d488e" stroke="#3d488e"/><path d="M1539,-76L1532,72L1545,349Z" fill="#30376f" stroke="#30376f"/><path d="M1539,-76L1545,349L1555,568Z" fill="#2a2145" stroke="#2a2145"/><path d="M1539,-76L1555,568L1562,683Z" fill="#2a1a37" stroke="#2a1a37"/><path d="M-25,24L-87,122L27,188Z" fill="#313770" stroke="#313770"/><path d="M-25,24L27,188L73,48Z" fill="#343b77" stroke="#343b77"/><path d="M73,48L27,188L136,170Z" fill="#2e3369" stroke="#2e3369"/><path d="M73,48L136,170L124,11Z" fill="#353d7a" stroke="#353d7a"/><path d="M124,11L136,170L290,16Z" fill="#363f7d" stroke="#363f7d"/><path d="M290,16L136,170L280,186Z" fill="#2f356c" stroke="#2f356c"/><path d="M290,16L280,186L328,130Z" fill="#313770" stroke="#313770"/><path d="M290,16L328,130L379,83Z" fill="#353d7a" stroke="#353d7a"/><path d="M290,16L379,83L415,41Z" fill="#384283" stroke="#384283"/><path d="M379,83L328,130L467,157Z" fill="#2f356c" stroke="#2f356c"/><path d="M379,83L467,157L415,41Z" fill="#333a75" stroke="#333a75"/><path d="M415,41L467,157L567,71Z" fill="#333b76" stroke="#333b76"/><path d="M567,71L467,157L563,179Z" fill="#2e3369" stroke="#2e3369"/><path d="M567,71L563,179L650,168Z" fill="#2d3368" stroke="#2d3368"/><path d="M567,71L650,168L642,12Z" fill="#343c78" stroke="#343c78"/><path d="M642,12L650,168L722,81Z" fill="#343b77" stroke="#343b77"/><path d="M722,81L650,168L779,174Z" fill="#2d3267" stroke="#2d3267"/><path d="M722,81L779,174L815,56Z" fill="#323872" stroke="#323872"/><path d="M815,56L779,174L866,162Z" fill="#2e346a" stroke="#2e346a"/><path d="M815,56L866,162L946,76Z" fill="#323974" stroke="#323974"/><path d="M946,76L866,162L951,171Z" fill="#2e3369" stroke="#2e3369"/><path d="M946,76L951,171L1033,162Z" fill="#2e3369" stroke="#2e3369"/><path d="M946,76L1033,162L1068,34Z" fill="#333b76" stroke="#333b76"/><path d="M1068,34L1033,162L1180,132Z" fill="#313870" stroke="#313870"/><path d="M1068,34L1180,132L1149,12Z" fill="#37407f" stroke="#37407f"/><path d="M1149,12L1180,132L1267,24Z" fill="#374080" stroke="#374080"/><path d="M1267,24L1180,132L1264,176Z" fill="#313770" stroke="#313770"/><path d="M1267,24L1264,176L1366,19Z" fill="#353d7b" stroke="#353d7b"/><path d="M1366,19L1264,176L1385,184Z" fill="#2f356b" stroke="#2f356b"/><path d="M1366,19L1385,184L1437,143Z" fill="#30376f" stroke="#30376f"/><path d="M1366,19L1437,143L1484,26Z" fill="#363f7e" stroke="#363f7e"/><path d="M1484,26L1437,143L1532,72Z" fill="#343c79" stroke="#343c79"/><path d="M1532,72L1437,143L1523,170Z" fill="#2f346b" stroke="#2f346b"/><path d="M1532,72L1523,170L1545,349Z" fill="#2a2b58" stroke="#2a2b58"/><path d="M-87,122L-74,474L-74,318Z" fill="#2a1e3f" stroke="#2a1e3f"/><path d="M-87,122L-74,318L-12,226Z" fill="#2a2853" stroke="#2a2853"/><path d="M-87,122L-12,226L27,188Z" fill="#2a2d5d" stroke="#2a2d5d"/><path d="M27,188L-12,226L41,229Z" fill="#2a2954" stroke="#2a2954"/><path d="M27,188L41,229L136,170Z" fill="#2a2b59" stroke="#2a2b59"/><path d="M136,170L41,229L123,264Z" fill="#2a2853" stroke="#2a2853"/><path d="M136,170L123,264L242,282Z" fill="#2a264f" stroke="#2a264f"/><path d="M136,170L242,282L280,186Z" fill="#2a2955" stroke="#2a2955"/><path d="M280,186L242,282L341,261Z" fill="#2a254e" stroke="#2a254e"/><path d="M280,186L341,261L328,130Z" fill="#2a2b59" stroke="#2a2b59"/><path d="M328,130L341,261L467,157Z" fill="#2a2c5c" stroke="#2a2c5c"/><path d="M467,157L341,261L463,275Z" fill="#2a2750" stroke="#2a2750"/><path d="M467,157L463,275L542,251Z" fill="#2a2751" stroke="#2a2751"/><path d="M467,157L542,251L563,179Z" fill="#2a2b59" stroke="#2a2b59"/><path d="M563,179L542,251L635,281Z" fill="#2a264f" stroke="#2a264f"/><path d="M563,179L635,281L650,168Z" fill="#2a2955" stroke="#2a2955"/><path d="M650,168L635,281L724,268Z" fill="#2a264f" stroke="#2a264f"/><path d="M650,168L724,268L779,174Z" fill="#2a2a57" stroke="#2a2a57"/><path d="M779,174L724,268L819,266Z" fill="#2a264f" stroke="#2a264f"/><path d="M779,174L819,266L866,162Z" fill="#2a2a58" stroke="#2a2a58"/><path d="M866,162L819,266L951,171Z" fill="#2a2a58" stroke="#2a2a58"/><path d="M951,171L819,266L988,257Z" fill="#2a2750" stroke="#2a2750"/><path d="M951,171L988,257L1033,162Z" fill="#2a2b58" stroke="#2a2b58"/><path d="M1033,162L988,257L1017,263Z" fill="#2a2751" stroke="#2a2751"/><path d="M1033,162L1017,263L1125,286Z" fill="#2a264f" stroke="#2a264f"/><path d="M1033,162L1125,286L1180,132Z" fill="#2a2b59" stroke="#2a2b59"/><path d="M1180,132L1125,286L1261,269Z" fill="#2a2751" stroke="#2a2751"/><path d="M1180,132L1261,269L1264,176Z" fill="#2a2b59" stroke="#2a2b59"/><path d="M1264,176L1261,269L1343,259Z" fill="#2a2650" stroke="#2a2650"/><path d="M1264,176L1343,259L1385,184Z" fill="#2a2a56" stroke="#2a2a56"/><path d="M1385,184L1343,259L1439,233Z" fill="#2a2752" stroke="#2a2752"/><path d="M1385,184L1439,233L1437,143Z" fill="#2a2c5b" stroke="#2a2c5b"/><path d="M1437,143L1439,233L1523,170Z" fill="#2a2c5c" stroke="#2a2c5c"/><path d="M1523,170L1439,233L1518,236Z" fill="#2a2955" stroke="#2a2955"/><path d="M1523,170L1518,236L1545,349Z" fill="#2a244c" stroke="#2a244c"/><path d="M-12,226L-74,318L41,229Z" fill="#2a244a" stroke="#2a244a"/><path d="M41,229L-74,318L61,385Z" fill="#2a1e3e" stroke="#2a1e3e"/><path d="M41,229L61,385L123,264Z" fill="#2a2042" stroke="#2a2042"/><path d="M123,264L61,385L131,387Z" fill="#2a1a37" stroke="#2a1a37"/><path d="M123,264L131,387L242,282Z" fill="#2a1e3e" stroke="#2a1e3e"/><path d="M242,282L131,387L241,368Z" fill="#2a1a37" stroke="#2a1a37"/><path d="M242,282L241,368L345,320Z" fill="#2a1c3b" stroke="#2a1c3b"/><path d="M242,282L345,320L341,261Z" fill="#2a2043" stroke="#2a2043"/><path d="M341,261L345,320L419,332Z" fill="#2a1e3f" stroke="#2a1e3f"/><path d="M341,261L419,332L463,275Z" fill="#2a2043" stroke="#2a2043"/><path d="M463,275L419,332L545,325Z" fill="#2a1e3e" stroke="#2a1e3e"/><path d="M463,275L545,325L542,251Z" fill="#2a2144" stroke="#2a2144"/><path d="M542,251L545,325L635,281Z" fill="#2a2044" stroke="#2a2044"/><path d="M635,281L545,325L642,340Z" fill="#2a1d3d" stroke="#2a1d3d"/><path d="M635,281L642,340L724,268Z" fill="#2a1f41" stroke="#2a1f41"/><path d="M724,268L642,340L713,369Z" fill="#2a1c3a" stroke="#2a1c3a"/><path d="M724,268L713,369L844,338Z" fill="#2a1c3a" stroke="#2a1c3a"/><path d="M724,268L844,338L819,266Z" fill="#2a2042" stroke="#2a2042"/><path d="M819,266L844,338L988,257Z" fill="#2a2043" stroke="#2a2043"/><path d="M988,257L844,338L981,386Z" fill="#2a1c3a" stroke="#2a1c3a"/><path d="M988,257L981,386L1029,358Z" fill="#2a1b38" stroke="#2a1b38"/><path d="M988,257L1029,358L1017,263Z" fill="#2a2042" stroke="#2a2042"/><path d="M1017,263L1029,358L1125,286Z" fill="#2a1f40" stroke="#2a1f40"/><path d="M1125,286L1029,358L1138,382Z" fill="#2a1a37" stroke="#2a1a37"/><path d="M1125,286L1138,382L1232,331Z" fill="#2a1b38" stroke="#2a1b38"/><path d="M1125,286L1232,331L1261,269Z" fill="#2a1f41" stroke="#2a1f41"/><path d="M1261,269L1232,331L1343,352Z" fill="#2a1d3c" stroke="#2a1d3c"/><path d="M1261,269L1343,352L1343,259Z" fill="#2a2042" stroke="#2a2042"/><path d="M1343,259L1343,352L1439,233Z" fill="#2a2145" stroke="#2a2145"/><path d="M1439,233L1343,352L1428,384Z" fill="#2a1c3b" stroke="#2a1c3b"/><path d="M1439,233L1428,384L1545,349Z" fill="#2a1c3b" stroke="#2a1c3b"/><path d="M1439,233L1545,349L1518,236Z" fill="#2a2247" stroke="#2a2247"/><path d="M-74,318L-74,474L14,442Z" fill="#2a1a37" stroke="#2a1a37"/><path d="M-74,318L14,442L61,385Z" fill="#2a1a37" stroke="#2a1a37"/><path d="M61,385L14,442L78,522Z" fill="#2a1a37" stroke="#2a1a37"/><path d="M61,385L78,522L131,387Z" fill="#2a1a37" stroke="#2a1a37"/><path d="M131,387L78,522L187,437Z" fill="#2a1a37" stroke="#2a1a37"/><path d="M131,387L187,437L241,368Z" fill="#2a1a37" stroke="#2a1a37"/><path d="M241,368L187,437L256,478Z" fill="#2a1a37" stroke="#2a1a37"/><path d="M241,368L256,478L380,464Z" fill="#2a1a37" stroke="#2a1a37"/><path d="M241,368L380,464L345,320Z" fill="#2a1a37" stroke="#2a1a37"/><path d="M345,320L380,464L410,442Z" fill="#2a1a37" stroke="#2a1a37"/><path d="M345,320L410,442L419,332Z" fill="#2a1a37" stroke="#2a1a37"/><path d="M419,332L410,442L545,325Z" fill="#2a1a37" stroke="#2a1a37"/><path d="M545,325L410,442L584,487Z" fill="#2a1a37" stroke="#2a1a37"/><path d="M545,325L584,487L647,444Z" fill="#2a1a37" stroke="#2a1a37"/><path d="M545,325L647,444L642,340Z" fill="#2a1a37" stroke="#2a1a37"/><path d="M642,340L647,444L713,369Z" fill="#2a1a37" stroke="#2a1a37"/><path d="M713,369L647,444L732,476Z" fill="#2a1a37" stroke="#2a1a37"/><path d="M713,369L732,476L848,444Z" fill="#2a1a37" stroke="#2a1a37"/><path d="M713,369L848,444L844,338Z" fill="#2a1a37" stroke="#2a1a37"/><path d="M844,338L848,444L981,386Z" fill="#2a1a37" stroke="#2a1a37"/><path d="M981,386L848,444L962,470Z" fill="#2a1a37" stroke="#2a1a37"/><path d="M981,386L962,470L1020,430Z" fill="#2a1a37" stroke="#2a1a37"/><path d="M981,386L1020,430L1029,358Z" fill="#2a1a37" stroke="#2a1a37"/><path d="M1029,358L1020,430L1127,423Z" fill="#2a1a37" stroke="#2a1a37"/><path d="M1029,358L1127,423L1138,382Z" fill="#2a1a37" stroke="#2a1a37"/><path d="M1138,382L1127,423L1250,445Z" fill="#2a1a37" stroke="#2a1a37"/><path d="M1138,382L1250,445L1232,331Z" fill="#2a1a37" stroke="#2a1a37"/><path d="M1232,331L1250,445L1343,352Z" fill="#2a1a37" stroke="#2a1a37"/><path d="M1343,352L1250,445L1379,430Z" fill="#2a1a37" stroke="#2a1a37"/><path d="M1343,352L1379,430L1428,384Z" fill="#2a1a37" stroke="#2a1a37"/><path d="M1428,384L1379,430L1483,474Z" fill="#2a1a37" stroke="#2a1a37"/><path d="M1428,384L1483,474L1525,446Z" fill="#2a1a37" stroke="#2a1a37"/><path d="M1428,384L1525,446L1545,349Z" fill="#2a1a37" stroke="#2a1a37"/><path d="M1545,349L1525,446L1555,568Z" fill="#2a1a37" stroke="#2a1a37"/><path d="M-74,474L-49,664L-23,587Z" fill="#2a1a37" stroke="#2a1a37"/><path d="M-74,474L-23,587L14,442Z" fill="#2a1a37" stroke="#2a1a37"/><path d="M14,442L-23,587L78,522Z" fill="#2a1a37" stroke="#2a1a37"/><path d="M187,437L78,522L180,582Z" fill="#2a1a37" stroke="#2a1a37"/><path d="M187,437L180,582L226,570Z" fill="#2a1a37" stroke="#2a1a37"/><path d="M187,437L226,570L256,478Z" fill="#2a1a37" stroke="#2a1a37"/><path d="M256,478L226,570L346,520Z" fill="#2a1a37" stroke="#2a1a37"/><path d="M256,478L346,520L380,464Z" fill="#2a1a37" stroke="#2a1a37"/><path d="M380,464L346,520L481,543Z" fill="#2a1a37" stroke="#2a1a37"/><path d="M380,464L481,543L410,442Z" fill="#2a1a37" stroke="#2a1a37"/><path d="M410,442L481,543L584,487Z" fill="#2a1a37" stroke="#2a1a37"/><path d="M584,487L481,543L588,511Z" fill="#2a1a37" stroke="#2a1a37"/><path d="M584,487L588,511L647,444Z" fill="#2a1a37" stroke="#2a1a37"/><path d="M647,444L588,511L665,566Z" fill="#2a1a37" stroke="#2a1a37"/><path d="M647,444L665,566L732,476Z" fill="#2a1a37" stroke="#2a1a37"/><path d="M732,476L665,566L736,531Z" fill="#2a1a37" stroke="#2a1a37"/><path d="M732,476L736,531L848,444Z" fill="#2a1a37" stroke="#2a1a37"/><path d="M848,444L736,531L847,581Z" fill="#2a1a37" stroke="#2a1a37"/><path d="M848,444L847,581L957,524Z" fill="#2a1a37" stroke="#2a1a37"/><path d="M848,444L957,524L962,470Z" fill="#2a1a37" stroke="#2a1a37"/><path d="M962,470L957,524L1055,553Z" fill="#2a1a37" stroke="#2a1a37"/><path d="M962,470L1055,553L1020,430Z" fill="#2a1a37" stroke="#2a1a37"/><path d="M1020,430L1055,553L1127,423Z" fill="#2a1a37" stroke="#2a1a37"/><path d="M1127,423L1055,553L1160,580Z" fill="#2a1a37" stroke="#2a1a37"/><path d="M1127,423L1160,580L1240,511Z" fill="#2a1a37" stroke="#2a1a37"/><path d="M1127,423L1240,511L1250,445Z" fill="#2a1a37" stroke="#2a1a37"/><path d="M1250,445L1240,511L1379,430Z" fill="#2a1a37" stroke="#2a1a37"/><path d="M1379,430L1240,511L1355,575Z" fill="#2a1a37" stroke="#2a1a37"/><path d="M1379,430L1355,575L1450,534Z" fill="#2a1a37" stroke="#2a1a37"/><path d="M1379,430L1450,534L1483,474Z" fill="#2a1a37" stroke="#2a1a37"/><path d="M1483,474L1450,534L1555,568Z" fill="#2a1a37" stroke="#2a1a37"/><path d="M1483,474L1555,568L1525,446Z" fill="#2a1a37" stroke="#2a1a37"/><path d="M-23,587L-49,664L47,664Z" fill="#2a1a37" stroke="#2a1a37"/><path d="M-23,587L47,664L78,522Z" fill="#2a1a37" stroke="#2a1a37"/><path d="M78,522L47,664L152,650Z" fill="#2a1a37" stroke="#2a1a37"/><path d="M78,522L152,650L180,582Z" fill="#2a1a37" stroke="#2a1a37"/><path d="M180,582L152,650L230,673Z" fill="#2a1a37" stroke="#2a1a37"/><path d="M180,582L230,673L226,570Z" fill="#2a1a37" stroke="#2a1a37"/><path d="M226,570L230,673L370,672Z" fill="#2a1a37" stroke="#2a1a37"/><path d="M226,570L370,672L346,520Z" fill="#2a1a37" stroke="#2a1a37"/><path d="M346,520L370,672L481,543Z" fill="#2a1a37" stroke="#2a1a37"/><path d="M481,543L370,672L438,680Z" fill="#2a1a37" stroke="#2a1a37"/><path d="M481,543L438,680L570,675Z" fill="#2a1a37" stroke="#2a1a37"/><path d="M481,543L570,675L588,511Z" fill="#2a1a37" stroke="#2a1a37"/><path d="M588,511L570,675L665,566Z" fill="#2a1a37" stroke="#2a1a37"/><path d="M665,566L570,675L660,635Z" fill="#2a1a37" stroke="#2a1a37"/><path d="M665,566L660,635L736,531Z" fill="#2a1a37" stroke="#2a1a37"/><path d="M736,531L660,635L763,687Z" fill="#2a1a37" stroke="#2a1a37"/><path d="M736,531L763,687L847,581Z" fill="#2a1a37" stroke="#2a1a37"/><path d="M847,581L763,687L884,667Z" fill="#2a1a37" stroke="#2a1a37"/><path d="M847,581L884,667L953,650Z" fill="#2a1a37" stroke="#2a1a37"/><path d="M847,581L953,650L957,524Z" fill="#2a1a37" stroke="#2a1a37"/><path d="M957,524L953,650L1055,553Z" fill="#2a1a37" stroke="#2a1a37"/><path d="M1055,553L953,650L1018,688Z" fill="#2a1a37" stroke="#2a1a37"/><path d="M1055,553L1018,688L1128,669Z" fill="#2a1a37" stroke="#2a1a37"/><path d="M1055,553L1128,669L1160,580Z" fill="#2a1a37" stroke="#2a1a37"/><path d="M1160,580L1128,669L1269,674Z" fill="#2a1a37" stroke="#2a1a37"/><path d="M1160,580L1269,674L1240,511Z" fill="#2a1a37" stroke="#2a1a37"/><path d="M1240,511L1269,674L1355,575Z" fill="#2a1a37" stroke="#2a1a37"/><path d="M1355,575L1269,674L1378,649Z" fill="#2a1a37" stroke="#2a1a37"/><path d="M1355,575L1378,649L1441,659Z" fill="#2a1a37" stroke="#2a1a37"/><path d="M1355,575L1441,659L1450,534Z" fill="#2a1a37" stroke="#2a1a37"/><path d="M1450,534L1441,659L1555,568Z" fill="#2a1a37" stroke="#2a1a37"/><path d="M1555,568L1441,659L1562,683Z" fill="#2a1a37" stroke="#2a1a37"/><path d="M-49,664L438,680L230,673Z" fill="#2a1a37" stroke="#2a1a37"/><path d="M-49,664L230,673L47,664Z" fill="#2a1a37" stroke="#2a1a37"/><path d="M47,664L230,673L152,650Z" fill="#2a1a37" stroke="#2a1a37"/><path d="M230,673L438,680L370,672Z" fill="#2a1a37" stroke="#2a1a37"/><path d="M438,680L763,687L570,675Z" fill="#2a1a37" stroke="#2a1a37"/><path d="M570,675L763,687L660,635Z" fill="#2a1a37" stroke="#2a1a37"/><path d="M763,687L1018,688L884,667Z" fill="#2a1a37" stroke="#2a1a37"/><path d="M884,667L1018,688L953,650Z" fill="#2a1a37" stroke="#2a1a37"/><path d="M1018,688L1562,683L1269,674Z" fill="#2a1a37" stroke="#2a1a37"/><path d="M1018,688L1269,674L1128,669Z" fill="#2a1a37" stroke="#2a1a37"/><path d="M1269,674L1562,683L1441,659Z" fill="#2a1a37" stroke="#2a1a37"/><path d="M1269,674L1441,659L1378,649Z" fill="#2a1a37" stroke="#2a1a37"/></g></svg>